<svg version="1.0" xmlns="http://www.w3.org/2000/svg" width="192.000000pt" height="192.000000pt" viewBox="0 0 192.000000 192.000000" preserveAspectRatio="xMidYMid meet"> <g transform="translate(0.000000,192.000000) scale(0.100000,-0.100000)" fill="black" stroke="none"> <path d="M845 1707 c-52 -32 -53 -51 -25 -287 6 -47 13 -124 16 -171 7 -105 -4 -115 -62 -61 -21 21 -55 48 -74 62 -19 13 -40 29 -46 35 -6 5 -33 28 -59 50 -27 22 -54 46 -61 53 -7 6 -16 12 -20 12 -4 0 -18 10 -31 22 -36 34 -98 31 -128 -6 -42 -53 -97 -167 -97 -203 0 -35 25 -73 49 -73 13 0 24 -5 71 -29 12 -6 57 -25 100 -42 90 -36 140 -57 164 -70 10 -5 23 -9 30 -9 19 -1 60 -38 54 -48 -3 -5 -24 -15 -48 -22 -24 -7 -47 -17 -52 -22 -6 -4 -18 -8 -28 -8 -10 0 -26 -4 -36 -9 -38 -21 -131 -61 -142 -61 -10 0 -22 -5 -67 -28 -13 -7 -27 -12 -33 -12 -26 0 -60 -45 -60 -78 0 -30 58 -156 80 -172 3 -3 9 -13 13 -23 17 -45 105 -42 157 5 14 13 68 55 120 93 52 39 97 73 98 77 2 5 10 8 18 8 8 0 14 4 14 8 0 4 14 16 31 26 55 33 58 13 28 -234 -6 -47 -11 -123 -12 -169 -2 -84 -2 -84 28 -102 37 -22 202 -26 237 -6 47 26 50 33 44 115 -15 209 -18 238 -25 247 -13 16 -14 152 -2 159 11 7 41 -6 63 -27 7 -7 41 -32 74 -55 34 -23 68 -47 75 -54 8 -8 30 -25 49 -38 19 -13 43 -32 54 -42 25 -22 79 -48 103 -48 25 0 63 28 63 46 0 8 3 14 8 14 4 0 13 15 21 33 8 17 17 34 20 37 18 15 41 73 41 102 0 33 -35 78 -60 78 -6 0 -18 4 -28 9 -24 12 -60 27 -115 47 -26 9 -50 21 -53 25 -3 5 -11 9 -18 9 -8 0 -31 8 -52 17 -22 9 -48 18 -59 20 -11 2 -24 8 -29 13 -6 6 -18 10 -27 10 -10 0 -21 5 -24 10 -7 12 33 49 53 50 7 0 20 4 30 9 25 14 111 51 117 51 2 0 30 12 62 26 32 14 69 31 83 36 14 6 33 14 42 19 10 5 23 9 29 9 16 0 49 39 50 59 3 36 -25 111 -43 119 -5 2 -8 12 -8 23 0 10 -4 19 -10 19 -5 0 -10 7 -10 15 0 8 -5 15 -11 15 -5 0 -8 4 -5 9 11 17 -35 46 -72 45 -30 0 -53 -12 -122 -64 -47 -36 -103 -82 -124 -102 -22 -21 -43 -38 -47 -38 -4 0 -28 -20 -55 -44 -67 -62 -77 -54 -70 53 3 47 10 124 16 171 5 47 13 122 16 167 7 89 3 98 -49 121 -35 15 -195 15 -222 -1z"/> </g> </svg>