<svg xmlns="http://www.w3.org/2000/svg" viewBox="0 0 101 35" id="svg11153329116"><path fill="black" d="M 38.136 0 L 18.18 34.969 L 0 34.969 L 15.582 7.664 C 17.998 3.431 24.025 0 29.046 0 Z M 82.718 8.742 C 82.718 3.914 86.788 0 91.808 0 C 96.829 0 100.898 3.914 100.898 8.742 C 100.898 13.571 96.829 17.485 91.808 17.485 C 86.788 17.485 82.718 13.571 82.718 8.742 Z M 41.545 0 L 59.725 0 L 39.769 34.969 L 21.589 34.969 Z M 63.017 0 L 81.197 0 L 65.614 27.305 C 63.199 31.538 57.171 34.969 52.151 34.969 L 43.061 34.969 Z"/></svg>